<mxfile host="app.diagrams.net" modified="2023-10-30T01:34:39.790Z" agent="Mozilla/5.0 (Windows NT 10.0; Win64; x64) AppleWebKit/537.36 (KHTML, like Gecko) Chrome/118.0.0.0 Safari/537.36" version="22.0.8" etag="1Flcq5rC0skZAmjoOXSZ" type="github">
  <diagram name="第 1 页" id="PYvS6lfDtnCuqkqXHStv">
    <mxGraphModel>
      <root>
        <mxCell id="0" />
        <mxCell id="1" parent="0" />
        <mxCell id="2" value="Tree structure display process" style="rounded=1;absoluteArcSize=1;arcSize=14;whiteSpace=wrap;strokeWidth=2;" vertex="1" parent="1">
          <mxGeometry width="231" height="34" as="geometry" />
        </mxCell>
        <mxCell id="3" value="Start" style="whiteSpace=wrap;strokeWidth=2;" vertex="1" parent="1">
          <mxGeometry x="281" width="51" height="34" as="geometry" />
        </mxCell>
        <mxCell id="4" value="Display root node" style="rhombus;strokeWidth=2;whiteSpace=wrap;" vertex="1" parent="1">
          <mxGeometry x="219" y="84" width="174" height="174" as="geometry" />
        </mxCell>
        <mxCell id="5" value="Are there any children?" style="rhombus;strokeWidth=2;whiteSpace=wrap;" vertex="1" parent="1">
          <mxGeometry x="198" y="308" width="217" height="217" as="geometry" />
        </mxCell>
        <mxCell id="6" value="End" style="whiteSpace=wrap;strokeWidth=2;" vertex="1" parent="1">
          <mxGeometry x="286" y="996" width="41" height="34" as="geometry" />
        </mxCell>
        <mxCell id="7" value="Display child node" style="rounded=1;absoluteArcSize=1;arcSize=14;whiteSpace=wrap;strokeWidth=2;" vertex="1" parent="1">
          <mxGeometry x="308" y="595" width="146" height="34" as="geometry" />
        </mxCell>
        <mxCell id="8" value="Are there more children?" style="rhombus;strokeWidth=2;whiteSpace=wrap;" vertex="1" parent="1">
          <mxGeometry x="267" y="698" width="229" height="229" as="geometry" />
        </mxCell>
        <mxCell id="9" value="" style="curved=1;startArrow=none;endArrow=block;exitX=0.49915747549019607;exitY=1;entryX=0.5026266163793104;entryY=0;" edge="1" parent="1" source="3" target="4">
          <mxGeometry relative="1" as="geometry">
            <Array as="points" />
          </mxGeometry>
        </mxCell>
        <mxCell id="10" value="" style="curved=1;startArrow=none;endArrow=block;exitX=0.5026266163793104;exitY=1.0022898706896552;entryX=0.49980198732718895;entryY=0.0018361175115207374;" edge="1" parent="1" source="4" target="5">
          <mxGeometry relative="1" as="geometry">
            <Array as="points" />
          </mxGeometry>
        </mxCell>
        <mxCell id="11" value="Yes" style="curved=1;startArrow=none;endArrow=block;exitX=0.7611859194367344;exitY=1.0027001728110598;entryX=0.5013511344178082;entryY=-0.012178308823529412;" edge="1" parent="1" source="5" target="7">
          <mxGeometry relative="1" as="geometry">
            <Array as="points">
              <mxPoint x="381" y="560" />
            </Array>
          </mxGeometry>
        </mxCell>
        <mxCell id="12" value="No" style="curved=1;startArrow=none;endArrow=block;exitX=0.2384180552176435;exitY=1.0027001728110598;entryX=-0.004858993902439024;entryY=0.0680476232977566;" edge="1" parent="1" source="5" target="6">
          <mxGeometry relative="1" as="geometry">
            <Array as="points">
              <mxPoint x="232" y="560" />
              <mxPoint x="232" y="961" />
            </Array>
          </mxGeometry>
        </mxCell>
        <mxCell id="13" value="" style="curved=1;startArrow=none;endArrow=block;exitX=0.36583610582358017;exitY=0.9878216911764706;entryX=0.29755341054479706;entryY=-0.0018081331877729259;" edge="1" parent="1" source="7" target="8">
          <mxGeometry relative="1" as="geometry">
            <Array as="points">
              <mxPoint x="321" y="663" />
            </Array>
          </mxGeometry>
        </mxCell>
        <mxCell id="14" value="Yes" style="curved=1;startArrow=none;endArrow=block;exitX=0.5525113548485338;exitY=-0.0018081331877729259;entryX=0.5376233074128872;entryY=0.9878216911764706;" edge="1" parent="1" source="8" target="7">
          <mxGeometry relative="1" as="geometry">
            <Array as="points">
              <mxPoint x="397" y="663" />
            </Array>
          </mxGeometry>
        </mxCell>
        <mxCell id="15" value="No" style="curved=1;startArrow=none;endArrow=block;exitX=0.49867801582969434;exitY=0.998021288209607;entryX=1.002762957317073;entryY=0.0680476232977566;" edge="1" parent="1" source="8" target="6">
          <mxGeometry relative="1" as="geometry">
            <Array as="points">
              <mxPoint x="381" y="961" />
            </Array>
          </mxGeometry>
        </mxCell>
      </root>
    </mxGraphModel>
  </diagram>
</mxfile>
